<svg width="26" height="24" viewBox="0 0 26 24" fill="none" xmlns="http://www.w3.org/2000/svg">
<path d="M25.5 8.09584C25.5 6.06705 24.7085 4.1597 23.2713 2.72494C21.8343 1.29019 19.9238 0.5 17.8918 0.5C16.0604 0.5 14.3279 1.14178 12.9519 2.31896C11.5874 1.18445 9.88272 0.566103 8.08946 0.566103C6.05915 0.566103 4.15035 1.35553 2.7145 2.78902C-0.192581 5.69158 -0.241284 10.4342 2.59097 13.3995C2.60885 13.4233 2.62839 13.4458 2.64969 13.467L12.5128 23.3145C12.6318 23.4333 12.793 23.5 12.9613 23.5C13.1296 23.5 13.2908 23.4333 13.4097 23.3145L13.4832 23.2412C13.4861 23.2384 13.4898 23.2363 13.4927 23.2333L15.6358 21.0937C15.6431 21.0864 15.6491 21.0784 15.6563 21.0709L23.2713 13.467C24.7086 12.0324 25.5 10.1248 25.5 8.09584ZM22.3745 3.62037C23.5721 4.81578 24.2317 6.40528 24.2317 8.09584C24.2318 9.69977 23.6372 11.2119 22.5537 12.3839C22.4734 11.8917 22.2445 11.4373 21.8844 11.0779L15.9796 5.18175C15.7319 4.93444 15.3302 4.93444 15.0828 5.18175C15.0787 5.18593 15.0758 5.19087 15.0719 5.19505C15.0672 5.19961 15.0616 5.20265 15.0569 5.20733L11.3986 8.85994C10.957 9.301 10.2382 9.301 9.79647 8.86007C9.58251 8.64644 9.46468 8.3624 9.46468 8.06025C9.46468 7.7581 9.58263 7.47407 9.7966 7.26044L13.4548 3.60783C13.4904 3.57212 13.5196 3.53261 13.5449 3.49158C14.7256 2.37848 16.261 1.76633 17.8917 1.76633C19.585 1.76633 21.1771 2.42482 22.3745 3.62037ZM12.9611 21.9713L11.5587 20.5711L13.3356 18.797C13.5229 18.6097 13.7718 18.5066 14.0369 18.5066C14.3019 18.5066 14.5511 18.6097 14.7386 18.7971C15.118 19.176 15.1242 19.7875 14.7596 20.1754L12.9611 21.9713ZM7.83732 13.3079L6.0608 15.0819L4.65742 13.6809L6.43432 11.9067C6.62177 11.7194 6.87074 11.6164 7.13582 11.6164C7.40064 11.6164 7.64986 11.7194 7.83744 11.907C8.02503 12.094 8.12814 12.3427 8.12814 12.6074C8.12814 12.8721 8.02503 13.1206 7.83732 13.3079ZM8.73477 14.2034C8.9221 14.0161 9.1712 13.9131 9.43627 13.9131C9.70135 13.9131 9.95044 14.0161 10.1382 14.2036C10.3257 14.3908 10.4288 14.6394 10.4288 14.9039C10.4288 15.1686 10.3256 15.4174 10.1379 15.6047L8.36126 17.3788L6.95775 15.9775L8.73477 14.2034ZM11.0347 16.5002C11.2223 16.3129 11.4714 16.2099 11.7365 16.2099C12.0015 16.2099 12.2509 16.3129 12.4384 16.5001C12.8251 16.8866 12.8251 17.5153 12.4385 17.9015L10.6615 19.6754L9.25795 18.2741L11.0347 16.5002ZM3.6112 3.68457C4.80746 2.49029 6.39792 1.83256 8.08946 1.83256C9.5442 1.83256 10.9292 2.32098 12.0505 3.21907L8.89965 6.36501C8.44623 6.81785 8.19638 7.41987 8.19638 8.06013C8.19638 8.70064 8.44611 9.30278 8.89978 9.75562C9.36791 10.2228 9.98266 10.4564 10.5975 10.4564C11.2125 10.4564 11.8274 10.2226 12.2955 9.75524L15.5307 6.5247L20.9874 11.9732C21.2015 12.1868 21.3192 12.471 21.3192 12.7732C21.3192 13.0753 21.2013 13.3593 20.9876 13.5727C20.5459 14.0139 19.827 14.0135 19.3854 13.5728L14.5926 8.78713C14.5502 8.74483 14.5021 8.71241 14.4524 8.68455C14.2051 8.51056 13.8614 8.53259 13.6402 8.75344C13.3925 9.00076 13.3925 9.40168 13.6402 9.64887L18.4326 14.4341C18.6467 14.6477 18.7645 14.9319 18.7645 15.2339C18.7645 15.5359 18.6467 15.8201 18.4326 16.0338C18.2188 16.2475 17.9346 16.365 17.6319 16.365C17.3292 16.3649 17.0446 16.2472 16.8306 16.0336L12.1091 11.3197C12.1092 11.3198 12.1088 11.3195 12.1091 11.3197L12.0381 11.2489C11.7905 11.0018 11.3891 11.0017 11.1413 11.2489C10.8936 11.4962 10.8936 11.8971 11.1413 12.1443L13.6262 14.6254L16.0047 17.0003C16.4218 17.4169 16.4446 18.0797 16.0737 18.5237C15.9663 18.299 15.8219 18.0878 15.6359 17.9019C15.209 17.4753 14.6411 17.2403 14.0373 17.2403C14.0374 17.2403 14.0372 17.2403 14.0373 17.2403C14.023 17.2403 14.0085 17.2422 13.9943 17.2424C14.0051 16.6507 13.7864 16.0555 13.3356 15.6049C12.9085 15.1784 12.3407 14.9435 11.7369 14.9435C11.723 14.9435 11.7092 14.9453 11.6954 14.9455C11.6956 14.9316 11.6974 14.9178 11.6974 14.9039C11.6974 14.3009 11.4621 13.7341 11.0351 13.3081C10.6082 12.8816 10.0405 12.6467 9.43653 12.6467C9.42257 12.6467 9.40875 12.6484 9.3948 12.6487C9.39505 12.6349 9.39683 12.6212 9.39683 12.6073C9.39683 12.0041 9.16156 11.4373 8.73464 11.0113C8.30773 10.5847 7.74017 10.3498 7.1362 10.3498C7.13632 10.3498 7.13607 10.3498 7.1362 10.3498C6.53223 10.3498 5.96416 10.5848 5.5375 11.0113L3.76086 12.7852L3.60194 12.6265C3.58773 12.6083 3.57251 12.5909 3.55615 12.5742C1.14814 10.107 1.17288 6.11897 3.6112 3.68457Z" fill="#364564"/>
<path d="M12.1091 11.3197L16.8306 16.0336C17.0446 16.2472 17.3292 16.3649 17.6319 16.365C17.9346 16.365 18.2188 16.2475 18.4326 16.0338C18.6467 15.8201 18.7645 15.5359 18.7645 15.2339C18.7645 14.9319 18.6467 14.6477 18.4326 14.4341L13.6402 9.64887C13.3925 9.40168 13.3925 9.00076 13.6402 8.75344C13.8614 8.53259 14.2051 8.51056 14.4524 8.68455C14.5021 8.71241 14.5502 8.74483 14.5926 8.78713L19.3854 13.5728C19.827 14.0135 20.5459 14.0139 20.9876 13.5727C21.2013 13.3593 21.3192 13.0753 21.3192 12.7732C21.3192 12.471 21.2015 12.1868 20.9874 11.9732L15.5307 6.5247L12.2955 9.75524C11.8274 10.2226 11.2125 10.4564 10.5975 10.4564C9.98266 10.4564 9.36791 10.2228 8.89978 9.75562C8.44611 9.30278 8.19638 8.70064 8.19638 8.06013C8.19638 7.41987 8.44623 6.81785 8.89965 6.36501L12.0505 3.21907C10.9292 2.32098 9.5442 1.83256 8.08946 1.83256C6.39792 1.83256 4.80746 2.49029 3.6112 3.68457C1.17288 6.11897 1.14814 10.107 3.55615 12.5742C3.57251 12.5909 3.58773 12.6083 3.60194 12.6265L3.76086 12.7852L5.5375 11.0113C5.96416 10.5848 6.53223 10.3498 7.1362 10.3498M12.1091 11.3197C12.1088 11.3195 12.1092 11.3198 12.1091 11.3197ZM12.1091 11.3197L12.0381 11.2489C11.7905 11.0018 11.3891 11.0017 11.1413 11.2489C10.8936 11.4962 10.8936 11.8971 11.1413 12.1443L13.6262 14.6254L16.0047 17.0003C16.4218 17.4169 16.4446 18.0797 16.0737 18.5237C15.9663 18.299 15.8219 18.0878 15.6359 17.9019C15.209 17.4753 14.6411 17.2403 14.0373 17.2403M14.0373 17.2403C14.0372 17.2403 14.0374 17.2403 14.0373 17.2403ZM14.0373 17.2403C14.023 17.2403 14.0085 17.2422 13.9943 17.2424C14.0051 16.6507 13.7864 16.0555 13.3356 15.6049C12.9085 15.1784 12.3407 14.9435 11.7369 14.9435C11.723 14.9435 11.7092 14.9453 11.6954 14.9455C11.6956 14.9316 11.6974 14.9178 11.6974 14.9039C11.6974 14.3009 11.4621 13.7341 11.0351 13.3081C10.6082 12.8816 10.0405 12.6467 9.43653 12.6467C9.42257 12.6467 9.40875 12.6484 9.3948 12.6487C9.39505 12.6349 9.39683 12.6212 9.39683 12.6073C9.39683 12.0041 9.16156 11.4373 8.73464 11.0113C8.30773 10.5847 7.74017 10.3498 7.1362 10.3498M7.1362 10.3498C7.13607 10.3498 7.13632 10.3498 7.1362 10.3498ZM25.5 8.09584C25.5 6.06705 24.7085 4.1597 23.2713 2.72494C21.8343 1.29019 19.9238 0.5 17.8918 0.5C16.0604 0.5 14.3279 1.14178 12.9519 2.31896C11.5874 1.18445 9.88272 0.566103 8.08946 0.566103C6.05915 0.566103 4.15035 1.35553 2.7145 2.78902C-0.192581 5.69158 -0.241284 10.4342 2.59097 13.3995C2.60885 13.4233 2.62839 13.4458 2.64969 13.467L12.5128 23.3145C12.6318 23.4333 12.793 23.5 12.9613 23.5C13.1296 23.5 13.2908 23.4333 13.4097 23.3145L13.4832 23.2412C13.4861 23.2384 13.4898 23.2363 13.4927 23.2333L15.6358 21.0937C15.6431 21.0864 15.6491 21.0784 15.6563 21.0709L23.2713 13.467C24.7086 12.0324 25.5 10.1248 25.5 8.09584ZM22.3745 3.62037C23.5721 4.81578 24.2317 6.40528 24.2317 8.09584C24.2318 9.69977 23.6372 11.2119 22.5537 12.3839C22.4734 11.8917 22.2445 11.4373 21.8844 11.0779L15.9796 5.18175C15.7319 4.93444 15.3302 4.93444 15.0828 5.18175C15.0787 5.18593 15.0758 5.19087 15.0719 5.19505C15.0672 5.19961 15.0616 5.20265 15.0569 5.20733L11.3986 8.85994C10.957 9.301 10.2382 9.301 9.79647 8.86007C9.58251 8.64644 9.46468 8.3624 9.46468 8.06025C9.46468 7.75811 9.58263 7.47407 9.7966 7.26044L13.4548 3.60783C13.4904 3.57212 13.5196 3.53261 13.5449 3.49158C14.7256 2.37848 16.261 1.76633 17.8917 1.76633C19.585 1.76633 21.1771 2.42482 22.3745 3.62037ZM12.9611 21.9713L11.5587 20.5711L13.3356 18.797C13.5229 18.6097 13.7718 18.5066 14.0369 18.5066C14.3019 18.5066 14.5511 18.6097 14.7386 18.7971C15.118 19.176 15.1242 19.7875 14.7596 20.1754L12.9611 21.9713ZM7.83732 13.3079L6.0608 15.0819L4.65742 13.6809L6.43432 11.9067C6.62177 11.7194 6.87074 11.6164 7.13582 11.6164C7.40064 11.6164 7.64986 11.7194 7.83744 11.907C8.02503 12.094 8.12814 12.3427 8.12814 12.6074C8.12814 12.8721 8.02503 13.1206 7.83732 13.3079ZM8.73477 14.2034C8.9221 14.0161 9.1712 13.9131 9.43627 13.9131C9.70135 13.9131 9.95044 14.0161 10.1382 14.2036C10.3257 14.3908 10.4288 14.6394 10.4288 14.9039C10.4288 15.1686 10.3256 15.4174 10.1379 15.6047L8.36126 17.3788L6.95775 15.9775L8.73477 14.2034ZM11.0347 16.5002C11.2223 16.3129 11.4714 16.2099 11.7365 16.2099C12.0015 16.2099 12.2509 16.3129 12.4384 16.5001C12.8251 16.8866 12.8251 17.5153 12.4385 17.9015L10.6615 19.6754L9.25795 18.2741L11.0347 16.5002Z" stroke="#364564" stroke-width="0.6"/>
</svg>
