<svg width="26" height="24" viewBox="0 0 26 24" fill="none" xmlns="http://www.w3.org/2000/svg">
<path d="M23.2713 2.72494C24.7085 4.1597 25.5 6.06705 25.5 8.09584C25.5 10.1248 24.7086 12.0324 23.2713 13.467L15.6563 21.0709C15.6491 21.0784 15.6431 21.0864 15.6358 21.0937L13.4927 23.2333C13.4898 23.2363 13.4861 23.2384 13.4832 23.2412L13.4097 23.3145C13.2908 23.4333 13.1296 23.5 12.9613 23.5C12.793 23.5 12.6318 23.4333 12.5128 23.3145L2.64969 13.467C2.62839 13.4458 2.60885 13.4233 2.59097 13.3995C-0.241284 10.4342 -0.192581 5.69158 2.7145 2.78902C4.15035 1.35553 6.05915 0.566103 8.08946 0.566103C9.88272 0.566103 11.5874 1.18445 12.9519 2.31896C14.3279 1.14178 16.0604 0.5 17.8918 0.5C19.9238 0.5 21.8343 1.29019 23.2713 2.72494Z" fill="#FB923C" stroke="#FB923C" stroke-width="0.6"/>
</svg>
