<svg width="18" height="32" viewBox="0 0 18 32" fill="none" xmlns="http://www.w3.org/2000/svg">
<path fill-rule="evenodd" clip-rule="evenodd" d="M3.28496 23.0061C3.51746 21.7724 3.70186 20.6555 3.95842 19.5635C4.0867 19.0133 3.99851 18.7299 3.46134 18.5465C2.6596 18.2631 1.85786 17.8797 1 17.5129C2.01821 12.0197 3.03642 6.54321 4.06265 1C4.23903 1.05835 4.39136 1.10003 4.53567 1.15838C8.54437 2.77549 12.5531 4.41762 16.5618 6.0264C16.9466 6.18477 17.0508 6.35982 16.9787 6.7766C16.0406 12.0031 15.1186 17.2378 14.1726 22.4726C14.1073 22.7807 13.9695 23.067 13.7717 23.3062C11.6872 25.8069 9.58664 28.2409 7.4941 30.7082C7.39271 30.8426 7.25636 30.9439 7.10124 31C7.57427 28.3576 8.05531 25.7235 8.53636 22.9978L3.28496 23.0061ZM16.4576 6.44318H6.92486C6.12312 10.486 5.36147 14.5037 4.58378 18.5549L9.0174 20.4387C9.35413 18.5632 9.66681 16.771 10.0196 14.9872C10.0875 14.6351 10.233 14.3042 10.4445 14.0203C11.4066 12.7783 12.4007 11.5196 13.3789 10.3276L16.4576 6.44318ZM4.39938 1.5835C3.40522 6.83495 2.45917 12.0281 1.49708 17.2378L4.20696 18.3798C5.0087 14.212 5.81044 10.0442 6.61218 5.91803H14.838V5.82634L4.39938 1.5835ZM16.4255 7.25174C16.3433 7.32135 16.2656 7.39653 16.193 7.4768C14.3329 9.80244 12.4809 12.1198 10.6369 14.4537C10.5282 14.6037 10.4542 14.7777 10.4204 14.9622C10.1532 16.4237 9.88595 17.8769 9.61871 19.3218C9.39422 20.6305 9.39422 20.6305 10.5648 21.1306L13.7076 22.4643C14.6296 17.3795 15.5355 12.3615 16.4415 7.25174H16.4255ZM13.4991 22.9728H10.5167C10.0196 22.9728 9.39422 22.8311 9.06551 23.0895C8.73679 23.3479 8.80895 23.9981 8.72076 24.4815C8.40808 26.1486 8.11945 27.8158 7.81479 29.4829L7.911 29.5329L13.4991 22.9728ZM3.83014 22.481H8.64058C8.71274 22.1059 8.76084 21.7474 8.85705 21.3973C8.95326 21.0472 8.85705 20.8472 8.5123 20.7055C7.32573 20.222 6.15519 19.7052 4.97663 19.2051C4.83232 19.1467 4.67999 19.1134 4.49559 19.055C4.25506 20.222 4.04661 21.3306 3.83014 22.481ZM12.3767 22.481V22.3726L9.3381 21.0806L9.08154 22.4893L12.3767 22.481Z" fill="#364564" stroke="#364564" stroke-width="1.3" stroke-linejoin="round"/>
</svg>
